<?xml version="1.0" encoding="UTF-8" standalone="no"?>
<!-- Created with Inkscape (http://www.inkscape.org/) -->

<svg
   version="1.1"
   id="svg2"
   width="193.33333"
   height="132"
   viewBox="0 0 193.33333 132"
   sodipodi:docname="etisalat-seeklogo.eps"
   xmlns:inkscape="http://www.inkscape.org/namespaces/inkscape"
   xmlns:sodipodi="http://sodipodi.sourceforge.net/DTD/sodipodi-0.dtd"
   xmlns="http://www.w3.org/2000/svg"
   xmlns:svg="http://www.w3.org/2000/svg">
  <defs
     id="defs6" />
  <sodipodi:namedview
     id="namedview4"
     pagecolor="#ffffff"
     bordercolor="#000000"
     borderopacity="0.25"
     inkscape:showpageshadow="2"
     inkscape:pageopacity="0.0"
     inkscape:pagecheckerboard="0"
     inkscape:deskcolor="#d1d1d1" />
  <g
     id="g8"
     inkscape:groupmode="layer"
     inkscape:label="ink_ext_XXXXXX"
     transform="matrix(1.3333333,0,0,-1.3333333,0,132)">
    <g
       id="g10"
       transform="scale(0.1)">
      <path
         d="m 994.465,341.813 c -9.188,0 -17.031,1.472 -23.016,4.589 -29.035,15.008 -52.031,87.469 -51.633,161.953 0.196,48.622 30.997,75.411 77.161,75.411 24.643,0 53.703,-7.668 84.793,-23.719 89.31,-46.098 112.29,-118.578 51.66,-161.965 -48.08,-34.504 -103.58,-56.269 -138.965,-56.269 m -11.317,316.699 c -13.242,0 -25.226,-1.66 -35.527,-5.11 -40.148,-12.343 -56.035,-49.812 -52.93,-101.933 3.133,-52.059 19.258,-106.082 31.231,-145.371 13.191,-39.871 22.207,-65.028 38.574,-73.446 4.93,-2.539 10.684,-3.664 17.449,-3.664 15.696,0 36.715,6.098 64.795,14.719 38.95,12.969 92.34,31.121 136.62,58.75 44.28,27.59 65.69,62.266 52.51,102.137 -12.05,39.25 -58.58,83.808 -122.3,116.691 -46.91,24.219 -93.54,37.227 -130.422,37.227 M 821.262,703.453 C 798.313,673.57 797.758,624.41 813,563.512 c 21.398,-85.813 58.391,-172.5 75.617,-230.403 19.852,-59.199 19.981,-89.589 27.676,-93.554 0.762,-0.387 1.648,-0.567 2.742,-0.567 10.11,0 35.617,15.84 89.565,32.16 57.15,19.473 149.26,39.54 231.65,71.707 57.99,22.708 97.61,51.379 109.05,87.032 -18.42,-24.922 -52.11,-45.848 -96.62,-63.25 -82.4,-32.176 -174.48,-52.266 -231.67,-71.711 -53.928,-16.348 -79.385,-32.188 -89.533,-32.188 -1.102,0 -2.012,0.207 -2.774,0.598 -7.695,3.965 -7.82,34.297 -27.695,93.562 -17.235,57.856 -54.18,144.571 -75.606,230.395 -11.699,46.766 -14.082,86.637 -4.14,116.16"
         style="fill:#b5d118;fill-opacity:1;fill-rule:nonzero;stroke:none"
         id="path12" />
      <path
         d="m 919.398,760.258 c -17.441,0 -32.882,-2.129 -45.761,-6.512 -27.199,-8.254 -44.094,-25.676 -52.375,-50.305 9.406,12.239 22.57,21.243 39.941,26.497 12.93,4.402 28.399,6.531 45.899,6.531 59.902,0 143.508,-25.039 229.818,-69.598 111.56,-57.598 193.9,-130.422 211.1,-188.281 5.9,-17.531 6.06,-33.742 1.28,-48.711 15.65,21.191 20.27,45.242 11.14,72.48 -17.19,57.84 -99.57,130.645 -211.1,188.243 -86.37,44.628 -170.051,69.656 -229.942,69.656"
         style="fill:#6ba62e;fill-opacity:1;fill-rule:nonzero;stroke:none"
         id="path14" />
      <path
         d="m 919.398,760.258 c -17.441,0 -32.882,-2.129 -45.761,-6.512 -27.199,-8.254 -44.094,-25.676 -52.375,-50.305 9.406,12.239 22.57,21.243 39.941,26.497 12.93,4.402 28.399,6.531 45.899,6.531 59.902,0 143.508,-25.039 229.818,-69.598 111.56,-57.598 193.9,-130.422 211.1,-188.281 5.9,-17.531 6.06,-33.742 1.28,-48.711 15.65,21.191 20.27,45.242 11.14,72.48 -17.19,57.84 -99.57,130.645 -211.1,188.243 -86.37,44.628 -170.051,69.656 -229.942,69.656"
         style="fill:#adcf78;fill-opacity:1;fill-rule:nonzero;stroke:none"
         id="path16" />
      <path
         d="m 981.945,328.98 c -6.757,0 -12.519,1.133 -17.441,3.68 -16.387,8.418 -25.391,33.574 -38.574,73.449 -11.981,39.278 -28.106,93.301 -31.239,145.36 -3.097,52.129 12.782,89.59 52.938,101.933 10.305,3.45 22.277,5.102 35.519,5.102 36.882,0 83.512,-13 130.422,-37.231 63.72,-32.871 110.25,-77.429 122.3,-116.668 13.18,-39.882 -8.22,-74.558 -52.52,-102.16 -44.27,-27.617 -97.67,-45.769 -136.62,-58.73 -28.07,-8.641 -49.101,-14.735 -64.785,-14.735 m -74.832,407.489 c -17.511,0 -32.98,-2.129 -45.91,-6.543 -17.363,-5.242 -30.535,-14.246 -39.941,-26.485 -9.942,-29.511 -7.547,-69.382 4.133,-116.16 21.433,-85.812 58.378,-172.527 75.613,-230.371 19.883,-59.277 20.012,-89.609 27.695,-93.574 0.754,-0.391 1.68,-0.598 2.774,-0.598 10.148,0 35.605,15.852 89.543,32.188 57.18,19.445 149.26,39.523 231.66,71.711 44.51,17.402 78.2,38.34 96.63,63.242 4.77,14.969 4.62,31.18 -1.28,48.699 -17.2,57.871 -99.56,130.695 -211.1,188.293 -86.31,44.559 -169.914,69.598 -229.817,69.598"
         style="fill:#6ba62e;fill-opacity:1;fill-rule:nonzero;stroke:none"
         id="path18" />
      <path
         d="m 610.883,562.066 -0.07,1.356 0.207,0.976 -2.11,-1.16 -6.035,-3.34 -5.91,-2.668 c -0.75,-0.371 -1.719,-0.808 -1.863,-5.281 l -0.051,-1.133 v -51.914 h -45.254 l 0.012,46.629 c 0,7.121 -1.7,12.188 -5.196,15.473 -3.547,3.336 -8.996,4.793 -16.308,4.336 -0.403,0.027 -40.227,1.305 -71.653,-24.692 l -5.906,-6.726 -2.043,-2.637 -1.16,3.106 c -1.164,3.047 -3.059,6.054 -6.113,9.707 l -1.985,2.156 -1.64,1.406 c 0.246,-2.176 0.715,-7.351 0.715,-14.344 v -33.664 l -25.489,-0.027 v 116.047 c 0,1.875 -0.168,2.5 0.106,2.516 l -2.168,-1.18 -6.024,-3.352 -5.91,-2.683 c -0.801,-0.364 -1.883,-0.852 -1.883,-6.243 l -0.011,-104.218 c -0.176,-5.86 0.05,-8.614 3.078,-12.547 1.59,-2.082 4.59,-5.969 13.191,-5.969 h 24.406 l -0.019,-1.766 c -0.098,-8.664 -4.641,-23.41 -4.738,-23.703 l -0.352,-0.976 c 1.457,0.89 3.633,2.453 6.172,4.738 7.004,8.309 10.332,15.762 11.887,20.535 l 0.379,1.172 H 556.75 l 36.211,0.031 c 0.078,-0.019 7.129,-0.429 11.562,2.84 4.786,3.567 6.387,6.367 6.387,15.899 0,0 -0.039,33.429 -0.039,42.98 0,1.594 0.012,17.977 0.012,18.32 m -77.375,-62.441 h -79.559 l 0.125,1.258 c 0.039,0.453 5,45.168 68.996,47.355 3.192,0.086 5.731,-0.84 7.547,-2.746 3.164,-3.277 2.91,-8.32 2.891,-8.738 v -37.129"
         style="fill:#7a7a80;fill-opacity:1;fill-rule:nonzero;stroke:none"
         id="path20" />
      <path
         d="m 277.484,500.055 v 37.293 c 0,5.382 1.082,5.89 1.883,6.25 l 5.91,2.687 7.871,4.356 c 0.098,-0.325 0.196,-0.879 0.196,-2.246 l 0.019,-52.024 c 0,-3.711 -1.933,-7.906 -4.922,-10.691 -4.296,-3.985 -9.023,-3.977 -12.148,-3.957 l -87.617,-0.02 c -1.496,0.02 -14.942,0.645 -22.793,14.113 -3.438,5.918 -5.168,12.688 -5.168,20.243 0,5.304 0.84,10.996 2.558,17.05 1.36,4.512 2.61,6.426 3.469,7.325 l 0.235,-1.7 c 0.007,-0.125 2.273,-17.644 6.296,-25.007 7.004,-15.918 27.434,-14.825 27.629,-14.797 l 75.438,-0.028 h 1.144 z m 16.68,52.871 0.027,-0.008 -0.027,0.016 z"
         style="fill:#7a7a80;fill-opacity:1;fill-rule:nonzero;stroke:none"
         id="path22" />
      <path
         d="m 355.004,601.004 -0.012,0.594 c 0,5.398 1.035,5.867 1.887,6.25 l 5.906,2.683 7.813,4.328 c 0.148,-0.371 0.265,-0.988 0.265,-2.257 v -60.204 c 0,-54.132 -25.09,-69.609 -27.082,-70.761 h -23.875 c 8.223,5.547 15.301,11.746 20.653,18.691 l 0.421,0.547 -0.019,0.957 -28.418,63.203 c -0.07,0.145 -3.945,8.817 -3.945,18.75 0,6.836 2.011,14.199 8.183,19.871 l 0.117,-1.433 c 0.555,-5.95 2.059,-16.653 6.219,-25 0.176,-0.344 17.481,-33.489 24.309,-50.137 l 2.07,-6.289 1.133,-3.418 1.074,3.348 0.535,1.738 c 2.317,7.383 2.707,12.98 2.754,15.586 h 0.012 l 0.019,0.722 v 1.145 l -0.019,0.008 z m 16.668,16.18 v 0 0.007 z"
         style="fill:#7a7a80;fill-opacity:1;fill-rule:nonzero;stroke:none"
         id="path24" />
      <path
         d="m 216.391,377.301 -52.051,-5.34 c 2.058,-16.43 14.316,-22.582 27.383,-22.609 h 33.359 c 4.754,0 7.91,-3.204 7.91,-7.774 0,-2.199 -0.012,-6.672 -0.012,-6.672 h -41.589 c -23.203,0 -42.688,15.09 -42.688,46.008 0,26.356 18.43,44.266 44.61,44.266 18.8,0 34.074,-11.485 38.222,-28.809 2.512,-10.516 -3.172,-17.723 -15.144,-19.07 m -9.61,11.804 c 4.199,0.489 7.313,1.25 8.828,2.774 1.524,1.523 1.356,4.629 0.352,7.004 -3.195,7.48 -11.816,12.93 -22.824,12.93 -16.856,0 -28.739,-10.848 -28.739,-27.454 0,0 40.293,4.512 42.383,4.746"
         style="fill:#7a7a80;fill-opacity:1;fill-rule:nonzero;stroke:none"
         id="path26" />
      <path
         d="m 398.051,425.141 c 4.941,0 8.496,-2.293 8.496,-7.246 0,-4.961 -3.555,-7.254 -8.496,-7.254 h -36.27 c -7.597,-0.578 -8.566,-8.215 -7.941,-12.93 0.207,-1.523 0.93,-2.824 1.992,-3.723 2.375,-2 6.477,-2.715 10.734,-3.457 l 27.586,-4.851 c 14.504,-2.649 19.981,-10.008 19.981,-23.094 0,-20.344 -12.547,-27.863 -32.176,-27.863 h -45.82 c 0,0 0.008,5.047 0.008,7.246 0,4.941 3.371,7.246 8.507,7.246 h 36.239 c 14.152,0 17.793,4.344 17.773,12.129 -0.008,7.058 -1.953,9.648 -11.406,11.242 l -27.938,4.605 c -14.152,2.297 -20.293,9.731 -21.054,19.211 -1.114,13.914 4.648,28.739 23.711,28.739 h 36.074"
         style="fill:#7a7a80;fill-opacity:1;fill-rule:nonzero;stroke:none"
         id="path28" />
      <path
         d="m 497.816,393.344 c 0,15.746 -4.238,31.836 -27.57,31.836 h -32.723 c -5.136,0 -8.496,-2.301 -8.496,-7.246 0,-4.961 3.36,-7.262 8.496,-7.262 h 30.418 c 10.793,0 14.329,-2.484 14.329,-10.07 v -2.317 c -0.625,-4.629 -5.86,-5.73 -8.489,-6.347 -21.855,-5.137 -51.289,0.5 -51.289,-30.965 0,-16.789 14.317,-26.7 33.957,-26.7 0.223,0 19.715,-0.957 26.903,8.887 l 0.05,-0.851 c 0.477,-4.961 2.84,-7.579 7.911,-7.579 h 6.464 z M 482.27,367.172 c 0,-15.379 -8.665,-20.867 -23.36,-20.867 -13.254,0 -20.851,4.765 -20.851,15.379 0,7.89 6.711,13 14.726,14.414 8.008,1.418 20.215,1.953 29.485,4.082 v -13.008"
         style="fill:#7a7a80;fill-opacity:1;fill-rule:nonzero;stroke:none"
         id="path30" />
      <path
         d="m 615.988,393.344 c 0,15.746 -4.246,31.836 -27.586,31.836 h -32.726 c -5.125,0 -8.485,-2.301 -8.485,-7.246 0,-4.961 3.36,-7.262 8.485,-7.262 h 30.429 c 10.793,0 14.329,-2.484 14.329,-10.07 v -2.317 c -0.637,-4.629 -5.86,-5.73 -8.496,-6.347 -21.856,-5.137 -51.282,0.5 -51.282,-30.965 0,-16.789 14.317,-26.7 33.957,-26.7 0.223,0 19.715,-0.957 26.895,8.887 l 0.058,-0.851 c 0.469,-4.961 2.832,-7.579 7.899,-7.579 h 6.476 z m -15.554,-26.172 c 0,-15.379 -8.664,-20.867 -23.36,-20.867 -13.254,0 -20.859,4.765 -20.859,15.379 0,7.89 6.719,13 14.726,14.414 8.008,1.418 20.215,1.953 29.493,4.082 v -13.008"
         style="fill:#7a7a80;fill-opacity:1;fill-rule:nonzero;stroke:none"
         id="path32" />
      <path
         d="m 528.637,449.664 h -8.703 c -7.559,0 -6.864,-6.848 -6.864,-6.848 v -83.98 l -0.039,-24.066 15.606,-0.04 v 114.934"
         style="fill:#7a7a80;fill-opacity:1;fill-rule:nonzero;stroke:none"
         id="path34" />
      <path
         d="m 283.723,348.266 c -11.844,0 -16.25,0.539 -16.25,9.179 v 53.227 h 13.769 c 4.953,0 8.488,2.293 8.488,7.246 0,4.93 -3.535,7.223 -8.488,7.223 h -13.769 v 14.836 0.097 9.071 l -6.641,0.011 c -1.316,-0.019 -2.227,-0.066 -3.242,-0.187 -6.297,-0.672 -5.672,-6.797 -5.672,-6.797 v -17.031 h -4.238 c -4.934,0 -8.496,-2.293 -8.496,-7.223 0,-4.953 3.562,-7.246 8.496,-7.246 h 4.238 V 365.57 354.105 c 0,-19.07 13.262,-19.324 31.805,-19.324 3.066,0 9.179,0.028 9.179,0.028 0,0 0,4.199 0,6.211 0,4.414 -3.523,7.246 -9.179,7.246"
         style="fill:#7a7a80;fill-opacity:1;fill-rule:nonzero;stroke:none"
         id="path36" />
      <path
         d="m 668.859,348.266 c -11.843,0 -16.238,0.539 -16.238,9.179 v 53.227 h 13.758 c 4.953,0 8.488,2.293 8.488,7.246 0,4.93 -3.535,7.223 -8.488,7.223 h -13.758 v 14.836 0.097 9.071 l -6.641,0.011 c -1.328,-0.019 -2.246,-0.066 -3.253,-0.187 -6.289,-0.672 -5.664,-6.797 -5.664,-6.797 v -17.031 h -4.247 c -4.921,0 -8.476,-2.293 -8.476,-7.223 0,-4.953 3.555,-7.246 8.476,-7.246 h 4.247 V 365.57 354.105 c 0,-19.07 13.253,-19.324 31.796,-19.324 3.059,0 9.192,0.028 9.192,0.028 0,0 -0.012,4.199 -0.012,6.211 0,4.414 -3.535,7.246 -9.18,7.246"
         style="fill:#7a7a80;fill-opacity:1;fill-rule:nonzero;stroke:none"
         id="path38" />
      <path
         d="m 321.906,334.754 -0.027,90.34 -8.711,0.039 c -5.859,-0.078 -6.855,-3.762 -6.855,-6.922 v -83.457 h 15.593"
         style="fill:#7a7a80;fill-opacity:1;fill-rule:nonzero;stroke:none"
         id="path40" />
      <path
         d="m 312.387,431.969 c 3.789,0 5.761,-0.11 7.859,1.844 1.652,1.527 1.66,4.238 1.66,7.343 0,1.817 -0.039,7.949 -0.039,7.949 h -8.73 c -5.879,-0.078 -6.836,-3.71 -6.836,-6.882 0,-1.211 -0.028,-10.262 -0.028,-10.262 0,0 4.493,0.008 6.114,0.008"
         style="fill:#7a7a80;fill-opacity:1;fill-rule:nonzero;stroke:none"
         id="path42" />
      <path
         d="m 638.078,516.645 -0.019,85.468 c 0.039,5.41 1.054,5.879 1.886,6.262 l 5.918,2.676 8.211,4.551 -0.164,-0.469 c 0,-0.379 0.039,-0.988 0.039,-1.953 v -52.668 l 0.02,-0.02 V 481.93 h -15.891 v 34.715"
         style="fill:#7a7a80;fill-opacity:1;fill-rule:nonzero;stroke:none"
         id="path44" />
      <path
         d="m 216.359,550.965 c 3.821,0 5.801,-0.102 7.911,1.851 1.652,1.536 1.66,4.278 1.66,7.414 0,1.797 -0.008,7.969 -0.008,7.969 h -8.82 c -5.899,-0.078 -6.864,-3.711 -6.864,-6.902 0,-1.242 0.008,-10.332 0.008,-10.332 h 6.113"
         style="fill:#7a7a80;fill-opacity:1;fill-rule:nonzero;stroke:none"
         id="path46" />
      <path
         d="m 236.945,550.965 c 3.809,0 5.793,-0.102 7.903,1.851 1.66,1.536 1.66,4.278 1.66,7.414 v 7.969 h -8.828 c -5.891,-0.078 -6.856,-3.711 -6.856,-6.902 v -10.332 h 6.121"
         style="fill:#7a7a80;fill-opacity:1;fill-rule:nonzero;stroke:none"
         id="path48" />
      <path
         d="m 581.195,579 c 3.809,0 5.789,-0.109 7.91,1.844 1.661,1.554 1.661,4.277 1.661,7.422 0,1.808 0,7.968 0,7.968 h -8.828 c -5.891,-0.078 -6.875,-3.718 -6.875,-6.914 0,-1.23 0.007,-10.332 0.007,-10.332 0,0 4.504,0.012 6.125,0.012"
         style="fill:#7a7a80;fill-opacity:1;fill-rule:nonzero;stroke:none"
         id="path50" />
      <path
         d="m 601.75,579 c 3.828,0 5.82,-0.109 7.93,1.844 1.652,1.554 1.66,4.277 1.66,7.422 0,1.808 -0.008,7.968 -0.008,7.968 h -8.82 c -5.887,-0.078 -6.864,-3.718 -6.864,-6.914 0,-1.23 0,-10.332 0,-10.332 0,0 4.493,0.012 6.102,0.012"
         style="fill:#7a7a80;fill-opacity:1;fill-rule:nonzero;stroke:none"
         id="path52" />
    </g>
  </g>
</svg>
